# xmcd CD database file
#
# Track frame offsets:
#	183
#	22088
#	42415
#	65223
#	83993
#	109313
#	143088
#	168263
#
# Disc length: 2549 seconds
#
# Revision: 0
# Processed by: cddbd v1.4PL0 Copyright (c) Steve Scherf et al.
# Submitted via: CDex 1.50beta10
#
DISCID=7109f308
DTITLE=Luther "Snake Boy" Johnson - They Call Me Snake
DYEAR=1992
DGENRE=Blues
TTITLE0=Woman Don't Lie
TTITLE1=Take It off Him and Put It on Me
TTITLE2=Blues Is Something I'll Never Lose
TTITLE3=Woman Why You Treat Me So Mean
TTITLE4=They Call Me the Snake
TTITLE5=Somebody Loan Me a Dime
TTITLE6=Slip It off Your Hips and Move
TTITLE7=Woman Don't Lie
EXTD=YEAR: 1992
EXTT0=
EXTT1=
EXTT2=
EXTT3=
EXTT4=
EXTT5=
EXTT6=
EXTT7=
PLAYORDER=
